<?xml version="1.0" encoding="utf-8"?>
<!-- Generator: Adobe Illustrator 24.2.3, SVG Export Plug-In . SVG Version: 6.00 Build 0)  -->
<svg width="120%" height="120%" viewBox="0 0 50 39" version="1.1"  version="1.1" id="Layer_1" xmlns="http://www.w3.org/2000/svg" xmlns:xlink="http://www.w3.org/1999/xlink" x="0px" y="0px"
	 viewBox="0 0 1024 768" style="enable-background:new 0 0 1024 768;" xml:space="preserve">
<style type="text/css">
	.st0{fill-rule:evenodd;clip-rule:evenodd;fill:#1E242B;}
	.st1{fill:#1E242B;}
	.st2{fill:#FFFFFF;}
	.st3{fill-rule:evenodd;clip-rule:evenodd;fill:#1E242B;stroke:#FFFFFF;stroke-width:4.1581;stroke-miterlimit:10;}
	.st4{fill-rule:evenodd;clip-rule:evenodd;fill:#FFFFFF;}
</style>
<g>
	<g>
		<g>
			<path class="st0" d="M320.3,199.5l30.1-22c1.6-1.1,1.8-3.2,0.5-4.6L203.1,19.6c-1.3-1.4-3.7-1.5-5.2-0.4l-30.1,22
				c-1.6,1.1-1.8,3.2-0.5,4.6L315,199.1C316.3,200.4,318.7,200.6,320.3,199.5z"/>
			<path class="st0" d="M839.9,643.6l-77.5,56.6C762.5,700.2,764.5,637.8,839.9,643.6z"/>
			<g>
				<path class="st1" d="M185.4,34.9c24.2-16.3,52.9,4.5,70.8,18.3c5.3,4.1,10.7,8.2,15.5,12.7c4.6,4.2,22.2,21.7,4.6,14.4
					c-13.4-5.6-24.3-23.8-35.3-32.7c-12.6-10.2-26-19.9-43.2-22.9c-4.4-0.8-6.3,5.1-1.9,5.9c24.5,4.4,43.5,23,59,39.1
					c9.8,10.1,19.7,21.2,35.8,22.3c1.9,0.1,3.4-1.5,3.5-3c0.7-19.2-28.1-37.1-43.5-47.8c-20.4-14.1-47.1-26.2-70.3-10.5
					C176.9,32.9,181.8,37.2,185.4,34.9L185.4,34.9z"/>
			</g>
			<g>
				<path class="st1" d="M857.1,738c-2.7,0-5.3-1-7.2-2.9L267.6,130.9c-3.3-3.4-2.8-8.6,1.1-11.5c3.9-2.9,9.8-2.4,13.1,1
					l582.3,604.2c3.3,3.4,2.8,8.6-1.1,11.5C861.3,737.4,859.2,738,857.1,738z"/>
			</g>
		</g>
		<g>
			<path class="st0" d="M719.7,199.5l-30.1-22c-1.6-1.1-1.8-3.2-0.5-4.6L836.9,19.6c1.3-1.4,3.7-1.5,5.2-0.4l30.1,22
				c1.6,1.1,1.8,3.2,0.5,4.6L725,199.1C723.7,200.4,721.3,200.6,719.7,199.5z"/>
			<path class="st0" d="M200.1,643.6l77.5,56.6C277.5,700.2,275.5,637.8,200.1,643.6z"/>
			<g>
				<path class="st1" d="M859.6,30.6c-23.2-15.6-49.9-3.6-70.3,10.5c-15.4,10.7-44.3,28.6-43.5,47.8c0.1,1.5,1.6,3.2,3.5,3
					c16.1-1.1,26-12.2,35.8-22.3c15.6-16.1,34.4-34.7,59-39.1c4.4-0.8,2.5-6.7-1.9-5.9c-17.2,3.1-30.6,12.7-43.2,22.9
					c-11,9-21.8,27.1-35.3,32.7c-15.6,6.5-2.6-7.7,2.7-12.7c5.4-5.1,11.4-9.8,17.4-14.4c17.9-13.7,46.7-34.5,70.8-18.3
					C858.1,37.2,863.1,33,859.6,30.6L859.6,30.6z"/>
			</g>
			<g>
				<path class="st1" d="M182.9,738c-2.1,0-4.2-0.6-6-1.9c-4-2.9-4.5-8-1.1-11.5l582.3-604.2c3.3-3.4,9.2-3.9,13.1-1
					c4,2.9,4.5,8,1.1,11.5L190,735.1C188.2,737,185.5,738,182.9,738z"/>
			</g>
		</g>
	</g>
	<path class="st2" d="M247.8,421c-2.8-13.7-4.3-27.9-4.3-42.3c0-131.6,122.5-238.2,273.5-238.2c151.1,0,273.5,106.7,273.5,238.2
		c0,13-1.2,25.8-3.5,38.2"/>
	<g>
		<g>
			<polyline class="st1" points="643.7,382.5 643.7,424.8 676.4,424.8 676.4,382.5 			"/>
			<path class="st1" d="M658.5,202.1l48.7,70.1l-22.8-2.4l48.4,65.6l-25.3,4.5l39.4,41c0,0-67.8,19.7-175.4,0l41.2-38.7l-28.1-0.7
				l49.4-70.8l-24.2,1.8L658.5,202.1z"/>
		</g>
		<g>
			<polyline class="st1" points="500.6,368.7 500.6,424.8 543.9,424.8 543.9,368.7 			"/>
			<path class="st1" d="M520.3,129.6l64.6,93l-30.3-3.1l64.1,86.9l-33.5,5.9l52.2,54.3c0,0-89.9,26-232.6,0l54.5-51.3l-37.3-1
				l65.5-93.8l-32,2.4L520.3,129.6z"/>
		</g>
		<g>
			<polyline class="st1" points="349.3,382.5 349.3,424.8 382,424.8 382,382.5 			"/>
			<path class="st1" d="M364.2,202.1l48.7,70.1l-22.8-2.4l48.4,65.6l-25.3,4.5l39.4,41c0,0-67.8,19.7-175.4,0l41.2-38.7l-28.1-0.7
				l49.4-70.8l-24.2,1.8L364.2,202.1z"/>
		</g>
	</g>
	<polygon class="st3" points="993,611.2 21.7,611.2 119.3,515.6 21.7,415.9 993,415.9 934.6,508.8 	"/>
	<g>
		<path class="st2" d="M184.6,544c4.6,2.4,11.2,4.5,18.3,4.5c10.4,0,16.5-4.8,16.5-11.7c0-6.4-4.2-10.1-14.9-13.7
			c-12.9-4-20.8-9.8-20.8-19.5c0-10.7,10.2-18.7,25.5-18.7c8.1,0,13.9,1.6,17.4,3.4l-2.8,7.2c-2.6-1.2-7.8-3.3-15-3.3
			c-10.8,0-14.9,5.6-14.9,10.3c0,6.4,4.8,9.6,15.7,13.2c13.3,4.5,20.1,10.1,20.1,20.2c0,10.6-9,19.8-27.6,19.8
			c-7.6,0-15.9-1.9-20.1-4.4L184.6,544z"/>
		<path class="st2" d="M246.6,486.1h10.2v33.1h0.4c2.1-2.7,4.2-5.1,6.2-7.3l24.1-25.8h12.6l-28.6,29.1l30.8,39.5h-12.1l-26-33.7
			l-7.5,7.5v26.2h-10.2V486.1z"/>
		<path class="st2" d="M323.1,486.1v68.7h-10.2v-68.7H323.1z"/>
		<path class="st2" d="M426.7,552.6c-3.7,1.6-11.2,3.3-20.8,3.3c-22.2,0-39-12.2-39-34.8c0-21.5,16.7-36.1,41.2-36.1
			c9.8,0,16,1.8,18.7,3.1l-2.5,7.2c-3.9-1.6-9.4-2.9-15.9-2.9c-18.5,0-30.8,10.3-30.8,28.3c0,16.8,11.1,27.6,30.3,27.6
			c6.2,0,12.5-1.1,16.6-2.9L426.7,552.6z"/>
		<path class="st2" d="M507.3,519.8c0,23.6-16.5,36.2-36.6,36.2c-20.8,0-35.5-14.1-35.5-34.9c0-21.8,15.6-36.1,36.6-36.1
			C493.4,485,507.3,499.4,507.3,519.8z M446.1,520.9c0,14.7,9.1,27.8,25.2,27.8c16.1,0,25.3-12.9,25.3-28.5
			c0-13.7-8.2-27.9-25.2-27.9C454.5,492.3,446.1,505.8,446.1,520.9z"/>
		<path class="st2" d="M589.9,524.7c-0.6-9.6-1.3-21.1-1.2-29.7h-0.4c-2.7,8.1-6,16.6-9.9,26.1l-13.9,33.3h-7.7L544,521.7
			c-3.7-9.7-6.9-18.5-9.1-26.7h-0.2c-0.2,8.6-0.8,20.1-1.5,30.4l-2.1,29.5h-9.7l5.5-68.7h13l13.5,33.2c3.3,8.5,6,16,8,23.1h0.4
			c2-6.9,4.8-14.5,8.3-23.1l14-33.2h13l4.9,68.7h-9.9L589.9,524.7z"/>
		<path class="st2" d="M620.5,487c4.9-0.7,11.4-1.3,19.5-1.3c10.1,0,17.4,2,22.1,5.7c4.3,3.3,6.9,8.3,6.9,14.4
			c0,6.2-2.1,11.1-6.1,14.7c-5.4,5-14.2,7.5-24.1,7.5c-3,0-5.9-0.1-8.2-0.6v27.5h-10.2V487z M630.6,520.1c2.2,0.5,5,0.7,8.4,0.7
			c12.3,0,19.8-5.2,19.8-14.7c0-9.1-7.4-13.5-18.6-13.5c-4.4,0-7.8,0.3-9.6,0.7V520.1z"/>
		<path class="st2" d="M688.6,533.2l-8.2,21.6h-10.5l26.8-68.7h12.3l26.9,68.7H725l-8.4-21.6H688.6z M714.4,526.3l-7.7-19.8
			c-1.8-4.5-2.9-8.6-4.1-12.5h-0.2c-1.2,4.1-2.5,8.3-4,12.4l-7.7,19.9H714.4z"/>
		<path class="st2" d="M750.3,554.8v-68.7h11.1l25.3,34.8c5.9,8.1,10.4,15.3,14.2,22.3l0.2-0.1c-0.9-9.2-1.2-17.5-1.2-28.2v-28.7
			h9.6v68.7h-10.3l-25-34.9c-5.5-7.6-10.8-15.5-14.7-22.9l-0.4,0.1c0.6,8.7,0.8,16.9,0.8,28.3v29.4H750.3z"/>
		<path class="st2" d="M847,554.8v-29.1l-24.9-39.5h11.6l11.1,19c3,5.2,5.4,9.4,7.8,14.2h0.2c2.2-4.5,4.9-9,8-14.2l11.4-19h11.6
			l-26.4,39.4v29.2H847z"/>
	</g>
	<g>
		<path class="st4" d="M588,352.4c-0.5,2.3-4.3,4.4-0.3,6C588.1,356,592,354,588,352.4"/>
		<path class="st4" d="M462.2,354.1l4.6,0.2c0.1-2,2-2.3,2.5-3.9C465.6,350.4,461.3,349.8,462.2,354.1"/>
		<path class="st4" d="M483.9,242.7c0.6,0.6,3.5-0.8,2.4-1.9C485.7,240.2,482.8,241.6,483.9,242.7"/>
		<path class="st4" d="M237.1,360.7c0.2-2.5,3-2.7,2.5-5.9l-4.6-0.2C232.4,357.4,232.4,359.4,237.1,360.7"/>
		<path class="st4" d="M749.3,316.3c0.6,0.6,3.5-0.8,2.4-1.9C751.1,313.8,748.2,315.2,749.3,316.3"/>
		<path class="st4" d="M308,358.5C313.8,352,300.1,363,308,358.5"/>
		<path class="st4" d="M335,372c1.8-0.4,4.5,0.1,4.7-1.8C337.8,370.6,335.1,370.1,335,372"/>
		<path class="st4" d="M378.8,218.6c-0.1,1.1,1.7,2.3,2.3,0.1C381.1,217.6,379.3,216.4,378.8,218.6"/>
		<polygon class="st4" points="429.3,212.4 433.9,212.5 434.1,208.6 429.5,208.4 		"/>
		<path class="st4" d="M262.3,355.9c0.5-2.3,3.7-2,6.9-1.8c0.9-5.2-2.9-6.6-8.9-6.3C260.6,350.9,259.2,355.2,262.3,355.9"/>
		<path class="st4" d="M464.8,409.8c1.8-0.4,4.5,0.1,4.7-1.8C467.7,408.3,464.9,407.8,464.8,409.8"/>
		<path class="st4" d="M677.5,409.1c0.6,0.6,3.5-0.8,2.4-1.9C679.2,406.6,676.3,408,677.5,409.1"/>
		<path class="st4" d="M486.5,384.6c-0.1,1.1,1.7,2.3,2.3,0.1C488.8,383.6,487,382.4,486.5,384.6"/>
		<path class="st4" d="M805.9,298.1c-0.4-1.6,0.1-3.9-2.1-4C804.2,295.6,803.7,298,805.9,298.1"/>
		<path class="st4" d="M454,381.8c-0.1,1.1,1.8,2.3,2.3,0.1C456.3,380.8,454.5,379.6,454,381.8"/>
		<path class="st4" d="M689.4,357.7c-0.1,1.1,1.7,2.3,2.3,0.1C691.7,356.7,689.9,355.4,689.4,357.7"/>
		<path class="st4" d="M678.1,355.3c0.6,0.6,3.5-0.8,2.4-1.9C679.8,352.8,676.9,354.2,678.1,355.3"/>
		<path class="st4" d="M550.5,371.2c0.6,0.6,3.5-0.8,2.4-1.9C552.3,368.7,549.4,370.1,550.5,371.2"/>
		<path class="st4" d="M751.8,330.1c-0.4-1.6,0.1-3.9-2.1-4.1C750.2,327.6,749.6,330,751.8,330.1"/>
		<polygon class="st4" points="572.1,348 576.7,348.2 576.9,344.2 572.3,344 		"/>
		<polygon class="st4" points="761.9,311 762,307 757.5,306.9 757.3,310.9 		"/>
		<polygon class="st4" points="265.4,391.7 270,391.8 270.1,387.8 265.6,387.7 		"/>
		<path class="st4" d="M712.7,233.2c-0.1-3.1,0.6-6.9-4.3-6.1C708.2,230.5,710,232.2,712.7,233.2"/>
		<path class="st4" d="M371.2,311.8c-0.3,3.4,1.5,5.2,4.3,6.1C378.9,315.2,379.2,310.4,371.2,311.8"/>
		<path class="st4" d="M701.9,322.4C694.4,317.3,707.1,329.3,701.9,322.4"/>
		<path class="st4" d="M698.4,348.2c-0.6,0.5,1,3,2.2,2.1C701.3,349.7,699.7,347.2,698.4,348.2"/>
		<path class="st4" d="M436.6,227.3C442.4,220.8,428.7,231.8,436.6,227.3"/>
		<path class="st4" d="M262,365.7c0.6,0.6,3.5-0.8,2.4-1.9C263.8,363.2,260.9,364.6,262,365.7"/>
		<path class="st4" d="M664.4,341C685.4,341.9,668.6,326.1,664.4,341"/>
		<path class="st4" d="M375.7,207.3c-0.4-2.4-2.5-1.3-4.6-0.2C371.1,209.1,375,209.7,375.7,207.3"/>
		<path class="st4" d="M665.2,171.8c0.7-0.5-1-3.1-2.2-2.1C662.3,170.3,664,172.8,665.2,171.8"/>
		<path class="st4" d="M640,324.3c-0.6,0.5,1,3.1,2.2,2.1C642.9,325.8,641.3,323.3,640,324.3"/>
		<polygon class="st4" points="654.1,372.8 653.9,376.8 658.5,376.9 658.7,372.9 		"/>
		<path class="st4" d="M623.2,393.4l-6.8-0.2C612.7,398.9,626.3,399.3,623.2,393.4"/>
		<path class="st4" d="M741.1,224.8c-0.7,0.5,1,3.1,2.2,2.1C744,226.3,742.4,223.8,741.1,224.8"/>
		<path class="st4" d="M663.3,192.6c0.4,1.5-0.1,3.9,2.1,4C665,195.1,665.5,192.7,663.3,192.6"/>
		<path class="st4" d="M735.9,238.6c-0.7,0.5,1,3.1,2.2,2.1C738.8,240.1,737.2,237.6,735.9,238.6"/>
		<path class="st4" d="M794.2,394.7c0.7-0.5-1-3.1-2.2-2.1C791.4,393.1,793,395.7,794.2,394.7"/>
		<path class="st4" d="M743.2,370.2C749,363.7,735.3,374.7,743.2,370.2"/>
		<path class="st4" d="M638.4,289.4c0.6,0.6,3.5-0.8,2.4-1.9C640.2,286.9,637.3,288.3,638.4,289.4"/>
		<path class="st4" d="M618,286.7C623.8,280.2,610.1,291.2,618,286.7"/>
		<path class="st4" d="M360,277.9c0,1.1,1.8,2.3,2.3,0.1C362.4,276.9,360.6,275.7,360,277.9"/>
		<path class="st4" d="M550.5,383C540,375.4,546.9,394.5,550.5,383"/>
		<path class="st4" d="M668.7,208.4l-4.6-0.2c-0.1,2-2,2.3-2.5,3.9C665.2,212.1,669.6,212.7,668.7,208.4"/>
		<path class="st4" d="M666,166.5c0.5,1.6-0.1,3.9,2.1,4.1C667.7,169,668.2,166.6,666,166.5"/>
		<polygon class="st4" points="780.2,246.2 775.6,246 775.5,250 780,250.2 		"/>
		<path class="st4" d="M530,278.7c0.4,1.6-0.1,3.9,2.1,4.1C531.7,281.2,532.2,278.9,530,278.7"/>
		<path class="st4" d="M567,249.1c-1.3-0.1-2.7,1.5-0.1,2C568.2,251.1,569.6,249.5,567,249.1"/>
		<path class="st4" d="M607,224.6c1.8-0.4,4.5,0.1,4.7-1.8C609.9,223.1,607.2,222.6,607,224.6"/>
		<path class="st4" d="M552.7,212.8c1.8-0.4,4.5,0.1,4.7-1.8C555.6,211.3,552.9,210.8,552.7,212.8"/>
		<path class="st4" d="M478.5,406.4c0.7-0.5-1-3-2.2-2.1C475.7,404.8,477.3,407.4,478.5,406.4"/>
		<path class="st4" d="M484.5,345.9c-2.7-0.4-5-3.7-6.8-0.2C480.3,346.1,482.6,349.4,484.5,345.9"/>
		<path class="st4" d="M459.7,419.7c0.6,0.6,3.5-0.8,2.4-1.9C461.5,417.2,458.6,418.7,459.7,419.7"/>
		<path class="st4" d="M455.1,367.8c-0.4-1.6,0.1-3.9-2.1-4.1C453.4,365.3,452.9,367.6,455.1,367.8"/>
		<path class="st4" d="M446.7,148.4C436.2,140.9,443.1,160,446.7,148.4"/>
		<polygon class="st4" points="687,399.6 691.5,399.7 691.7,395.8 687.1,395.6 		"/>
		<path class="st4" d="M383.5,387.2C389.3,380.8,375.6,391.8,383.5,387.2"/>
		<path class="st4" d="M426.1,249.3c-1.3-0.1-2.7,1.5-0.1,2C427.3,251.3,428.7,249.8,426.1,249.3"/>
		<path class="st4" d="M465,229.6l-6.9-0.2C454.5,235.1,468.1,235.6,465,229.6"/>
		<path class="st4" d="M423.6,153.6c-1.3-0.1-2.7,1.5-0.1,2C424.7,155.7,426.2,154.1,423.6,153.6"/>
		<path class="st4" d="M418.8,209.2c-3.2-2.9-8.7-3.2-7,3.7C415.7,213.2,417.7,211.6,418.8,209.2"/>
		<path class="st4" d="M414.9,296.7c-0.4-1.6,0.1-3.9-2.1-4.1C413.2,294.2,412.6,296.6,414.9,296.7"/>
		<path class="st4" d="M405.1,360.1c1.3,0,2.7-1.5,0.1-2C404,358,402.6,359.6,405.1,360.1"/>
		<path class="st4" d="M408.4,236.7c-1.3-0.1-2.7,1.5-0.1,2C409.6,238.8,411,237.2,408.4,236.7"/>
		<path class="st4" d="M541.8,374.7c0.6,0.6,3.5-0.8,2.4-1.9C543.5,372.2,540.6,373.6,541.8,374.7"/>
		<path class="st4" d="M401.8,282.3c-0.6,0.5,1,3.1,2.2,2.1C404.6,283.8,403,281.3,401.8,282.3"/>
		<path class="st4" d="M261.3,310c2.7-0.2,6.5,0.6,6.9-1.8C265.5,308.4,261.8,307.7,261.3,310"/>
		<path class="st4" d="M777.3,372.8c-0.6-0.6-3.5,0.8-2.4,1.9C775.6,375.3,778.5,373.9,777.3,372.8"/>
		<path class="st4" d="M387.1,353.5c0,2.7-1.3,4.3-2.5,5.9C391.7,360.6,393.4,354.3,387.1,353.5"/>
		<path class="st4" d="M309.7,301.7C315.5,295.2,301.8,306.2,309.7,301.7"/>
		<path class="st4" d="M435.1,357.1c0.6,0.6,3.5-0.8,2.4-1.9C436.9,354.6,434,356.1,435.1,357.1"/>
		<path class="st4" d="M431.6,208.6c-0.7,0.5,1,3.1,2.2,2.1C434.5,210.1,432.8,207.6,431.6,208.6"/>
		<path class="st4" d="M388.5,170.4c-1.3-0.1-2.7,1.5-0.1,2C389.7,172.4,391.1,170.8,388.5,170.4"/>
		<path class="st4" d="M688.9,355.8c0.1-1.1-1.7-2.3-2.3-0.1C686.6,356.9,688.4,358.1,688.9,355.8"/>
		<path class="st4" d="M547.3,353c1.8-0.4,4.5,0.1,4.7-1.8C550.2,351.5,547.5,351.1,547.3,353"/>
		<path class="st4" d="M371.3,145.9c3.9,0.2,5.9-1.3,7-3.7C375.1,139.2,369.6,138.9,371.3,145.9"/>
		<path class="st4" d="M363.8,161.5c-0.7,0.5,1,3.1,2.2,2.1C366.6,163.1,365,160.6,363.8,161.5"/>
		<path class="st4" d="M441.4,319.5c-0.1,2,3.9,2.6,4.6,0.2C443.4,319.8,442.5,316.6,441.4,319.5"/>
		<path class="st4" d="M411.8,316.5C417.6,310,403.9,321,411.8,316.5"/>
		<path class="st4" d="M676.7,323.5c-1.8,0.4-4.5-0.1-4.6,1.8C673.8,325,676.5,325.5,676.7,323.5"/>
		<path class="st4" d="M275.4,309.2C281.2,302.7,267.6,313.7,275.4,309.2"/>
		<polygon class="st4" points="702,318.4 697.5,318.3 697.3,322.3 701.9,322.4 		"/>
		<polygon class="st4" points="316.6,250.1 321.1,250.3 321.3,246.3 316.8,246.2 		"/>
		<path class="st4" d="M280.5,297.4c0.1-1.1-1.7-2.3-2.3-0.1C278.2,298.4,280,299.6,280.5,297.4"/>
		<path class="st4" d="M329,323.6c-2.7-0.4-5-3.7-6.9-0.2C324.9,323.8,327.2,327.1,329,323.6"/>
		<path class="st4" d="M688.7,310c-0.6-0.6-3.5,0.8-2.4,1.9C686.9,312.5,689.8,311.1,688.7,310"/>
		<path class="st4" d="M746.1,304c-0.6-0.6-3.5,0.8-2.4,1.9C744.4,306.5,747.3,305.1,746.1,304"/>
		<path class="st4" d="M708.1,388.9C717,396.2,713.7,382.7,708.1,388.9"/>
		<path class="st4" d="M367.3,289.1c0.6,0.6,3.5-0.8,2.4-1.9C369.1,286.6,366.2,288,367.3,289.1"/>
		<path class="st4" d="M461.4,280.3c0.6,0.6,3.5-0.8,2.4-1.9C463.2,277.9,460.3,279.3,461.4,280.3"/>
		<path class="st4" d="M763.1,282.7c0.6,0.6,3.5-0.8,2.4-1.9C764.9,280.2,762,281.6,763.1,282.7"/>
		<path class="st4" d="M544.1,273.2c-0.6-0.6-3.5,0.8-2.4,1.9C542.3,275.7,545.2,274.3,544.1,273.2"/>
		<path class="st4" d="M699.8,266.6c0.9-5.2-0.4-8.6-6.5-8.2C692.4,263.6,693.8,267,699.8,266.6"/>
		<path class="st4" d="M276.5,371.5c-0.7,0.5,1,3.1,2.2,2.1C279.3,373.1,277.7,370.6,276.5,371.5"/>
		<path class="st4" d="M276,383.5c-1.3,0-2.7,1.5-0.1,2C277.1,385.5,278.5,383.9,276,383.5"/>
		<path class="st4" d="M278,389.5c0.7-0.5-1-3.1-2.2-2.1C275.1,388,276.7,390.5,278,389.5"/>
		<path class="st4" d="M678.4,248.5c-0.1,2,3.9,2.6,4.6,0.2C680.4,248.8,679.5,245.7,678.4,248.5"/>
		<path class="st4" d="M662.5,246C669.9,252.3,669.7,238.9,662.5,246"/>
		<path class="st4" d="M284.7,249.2c-0.7,0.5,1,3.1,2.2,2.1C287.6,250.7,285.9,248.2,284.7,249.2"/>
		<path class="st4" d="M649.7,225.6C657.1,231.9,656.9,218.5,649.7,225.6"/>
		<path class="st4" d="M409.3,218.8c0.6,0.6,3.5-0.8,2.4-1.9C411.1,216.3,408.2,217.7,409.3,218.8"/>
		<path class="st4" d="M273,306.5c0.7-0.5-1-3-2.2-2.1C270.1,305,271.7,307.5,273,306.5"/>
		<polygon class="st4" points="675.2,216.6 679.8,216.7 680,212.7 675.4,212.6 		"/>
		<path class="st4" d="M713.3,221.2c0.6,0.6,3.5-0.8,2.4-1.9C715,218.7,712.1,220.1,713.3,221.2"/>
		<polygon class="st4" points="261.4,203.8 266,204 266.1,200 261.6,199.8 		"/>
		<path class="st4" d="M704.9,205l-0.4,8c4,0.3,7.1-0.2,9.2-1.7C714.7,206.1,709.2,206,704.9,205"/>
		<path class="st4" d="M630.3,199.1l-4.6-0.2c-3.8,4.8,7.5,6.1,6.8,2.2C631.1,201,629.8,200.8,630.3,199.1"/>
		<path class="st4" d="M658.9,172.2c-0.6-0.6-3.5,0.8-2.4,1.9C657.2,174.7,660.1,173.3,658.9,172.2"/>
		<path class="st4" d="M677.5,166.8c0.6,0.6,3.5-0.8,2.4-1.9C679.2,164.4,676.3,165.8,677.5,166.8"/>
		<polygon class="st4" points="725.7,162.5 721.1,162.3 720.9,166.3 725.5,166.5 		"/>
		<path class="st4" d="M615,132.8c3.3,5.6,13.4,0.4,13.9-3.5C624.1,130.4,613.1,125.6,615,132.8"/>
		<path class="st4" d="M645,125.9c0.1-2-3.9-2.6-4.6-0.2C643,125.6,643.9,128.8,645,125.9"/>
		<path class="st4" d="M422.1,380.1c2.8-2,6.5-3.9,2.8-6.8C421.7,375.3,421.3,377.7,422.1,380.1"/>
		<path class="st4" d="M447.4,309.5c0.9,0.1,2.1-2.6,0.5-2.8C447,306.6,445.8,309.2,447.4,309.5"/>
		<path class="st4" d="M369.7,314.9c-0.9-0.1-2.1,2.6-0.5,2.8C370.1,317.8,371.3,315.1,369.7,314.9"/>
		<path class="st4" d="M402,279.3c0.9,0.1,2.1-2.6,0.5-2.8C401.6,276.4,400.3,279.1,402,279.3"/>
		<path class="st4" d="M373.6,282.7c-1.1,1.3-3.6,2.4-2.3,4C372.4,285.4,374.9,284.3,373.6,282.7"/>
		<path class="st4" d="M339.1,255.4l-2.7-3.2c-1.8,1.2-3.3,0.1-5,0.8C333.7,255.4,335.8,258.7,339.1,255.4"/>
		<path class="st4" d="M375,227.4c-1.1,1.3-3.6,2.4-2.3,4C373.8,230.1,376.2,229,375,227.4"/>
		<path class="st4" d="M331.8,146.3C332,134.5,319.2,151.1,331.8,146.3"/>
		<path class="st4" d="M312.7,133.8c-0.7-0.9-3-0.9-1.8,1.2C311.6,135.9,313.9,135.9,312.7,133.8"/>
		<path class="st4" d="M259.9,165.3c0.6-4-2.6-7.9-7.7-2.4C254.4,165.7,257,166.1,259.9,165.3"/>
		<path class="st4" d="M277.5,238.6l4.1,4.8c5.2-2.6,7.4-5.7,3.3-9.5L277.5,238.6z"/>
		<path class="st4" d="M311.8,253.3C310.8,262.2,322.7,253.7,311.8,253.3"/>
		<polygon class="st4" points="335.9,265 338.6,268.2 342.3,265.8 339.6,262.6 		"/>
		<path class="st4" d="M433.2,373c-0.1,0.8,3,1.9,3.2,0.4C436.5,372.7,433.5,371.6,433.2,373"/>
		<path class="st4" d="M323.4,223.5l-2.7-3.2c-6.6,0.4-0.8,8.9,2.2,6C322.2,225.2,321.6,224.2,323.4,223.5"/>
		<path class="st4" d="M365.5,226.1c0.1-0.8-2.9-1.9-3.2-0.4C362.1,226.5,365.2,227.6,365.5,226.1"/>
		<path class="st4" d="M381.8,235.4c-0.1,0.8,2.9,1.8,3.2,0.4C385.2,235,382.1,234,381.8,235.4"/>
		<polygon class="st4" points="415.9,265.5 413.1,262.3 409.5,264.6 412.2,267.8 		"/>
		<path class="st4" d="M373.3,171.7c-3,5.7,8,9.3,11.8,7.2C381.2,176.3,378.6,165.9,373.3,171.7"/>
		<path class="st4" d="M398.3,187.7c1.8-1.2-0.1-4.3-2.7-3.2C397.3,186.2,395,188.8,398.3,187.7"/>
		<path class="st4" d="M546.2,210.8C535.8,203.3,542.7,222.4,546.2,210.8"/>
		<path class="st4" d="M525.7,311.7c-1.3-0.1-2.7,1.5-0.1,2C526.9,313.7,528.3,312.1,525.7,311.7"/>
		<path class="st4" d="M523.1,216c-1.3-0.1-2.7,1.5-0.1,2C524.3,218,525.7,216.5,523.1,216"/>
		<path class="st4" d="M453.4,261.7c-3.2-2.9-8.7-3.2-7,3.7C450.2,265.7,452.2,264.1,453.4,261.7"/>
		<path class="st4" d="M514.4,359.1c-0.4-1.6,0.1-3.9-2.1-4.1C512.7,356.6,512.2,358.9,514.4,359.1"/>
		<path class="st4" d="M508,299.1c-1.3-0.1-2.7,1.5-0.1,2C509.1,301.2,510.5,299.6,508,299.1"/>
		<path class="st4" d="M501.3,344.7c-0.6,0.5,1,3.1,2.2,2.1C504.2,346.2,502.6,343.7,501.3,344.7"/>
		<path class="st4" d="M488.1,232.7c-1.3-0.1-2.7,1.5-0.1,2C489.3,234.8,490.6,233.2,488.1,232.7"/>
		<path class="st4" d="M437.3,415.2C430.1,421.7,445.5,421.6,437.3,415.2"/>
		<path class="st4" d="M463.3,223.9c-0.7,0.5,1,3.1,2.2,2.1C466.2,225.5,464.6,222.9,463.3,223.9"/>
		<path class="st4" d="M540.9,381.9c-0.1,2,3.9,2.6,4.6,0.2C542.9,382.1,542.1,379,540.9,381.9"/>
		<path class="st4" d="M511.3,378.9C517.2,372.4,503.5,383.4,511.3,378.9"/>
		<path class="st4" d="M466.9,351.5c0.6,0.6,3.5-0.8,2.4-1.9C468.6,349,465.7,350.4,466.9,351.5"/>
		<path class="st4" d="M561,342.7c0.6,0.6,3.5-0.8,2.4-1.9C562.7,340.2,559.9,341.6,561,342.7"/>
		<path class="st4" d="M345.1,259.7c-0.7,0.5,1,3.1,2.2,2.1C347.9,261.2,346.3,258.7,345.1,259.7"/>
		<path class="st4" d="M508.9,281.2c0.6,0.6,3.5-0.8,2.4-1.9C510.6,278.7,507.8,280.1,508.9,281.2"/>
		<path class="st4" d="M333.3,317c0.7-0.5-1-3-2.2-2.1C330.5,315.5,332.1,318,333.3,317"/>
		<polygon class="st4" points="360.9,266.2 365.5,266.3 365.7,262.4 361.1,262.2 		"/>
		<path class="st4" d="M547,371.8c0.9,0.1,2.1-2.6,0.5-2.8C546.6,368.9,545.3,371.6,547,371.8"/>
		<path class="st4" d="M469.2,377.3c-0.9-0.1-2.1,2.6-0.5,2.8C469.6,380.2,470.9,377.5,469.2,377.3"/>
		<path class="st4" d="M501.5,341.7c0.9,0.1,2.1-2.6,0.5-2.8C501.1,338.8,499.9,341.5,501.5,341.7"/>
		<path class="st4" d="M474.5,289.8c-1.1,1.3-3.6,2.4-2.3,4C473.3,292.5,475.8,291.4,474.5,289.8"/>
		<path class="st4" d="M431.3,208.7C431.6,196.8,418.8,213.5,431.3,208.7"/>
		<path class="st4" d="M412.2,196.2c-0.7-0.9-3-0.9-1.8,1.2C411.1,198.3,413.4,198.3,412.2,196.2"/>
		<path class="st4" d="M359.4,227.7c0.6-4-2.6-7.9-7.7-2.4C353.9,228.1,356.6,228.4,359.4,227.7"/>
		<path class="st4" d="M289.8,373.4c-0.7-0.9-3-0.9-1.8,1.2C288.7,375.5,291,375.5,289.8,373.4"/>
		<path class="st4" d="M344.9,227.3c-0.1,0.8,2.9,1.9,3.2,0.4C348.2,226.9,345.2,225.8,344.9,227.3"/>
		<path class="st4" d="M423,285.9l-2.7-3.2c-6.6,0.4-0.8,8.9,2.2,6C421.8,287.6,421.2,286.6,423,285.9"/>
		<path class="st4" d="M465,288.5c0.1-0.8-2.9-1.9-3.2-0.4C461.7,288.9,464.8,290,465,288.5"/>
		<path class="st4" d="M481.4,297.8c-0.1,0.8,2.9,1.8,3.2,0.4C484.7,297.4,481.7,296.3,481.4,297.8"/>
		<polygon class="st4" points="515.4,327.8 512.7,324.6 509,327 511.7,330.2 		"/>
		<path class="st4" d="M538.2,249.6c1.8-1.2-0.1-4.3-2.7-3.2C537.2,248.1,534.9,250.7,538.2,249.6"/>
		<path class="st4" d="M648.7,276.8c0.6,0.6,3.5-0.8,2.4-1.9C650.4,274.3,647.5,275.7,648.7,276.8"/>
		<path class="st4" d="M726.7,299.7c-0.4-1.6,0.1-3.9-2.1-4.1C725.1,297.2,724.5,299.6,726.7,299.7"/>
		<path class="st4" d="M794.6,305.4c-0.7,0.5,1,3,2.2,2.1C797.5,306.9,795.9,304.4,794.6,305.4"/>
		<path class="st4" d="M726.4,398.1c-0.4-1.6,0.1-3.9-2.1-4C724.7,395.6,724.2,398,726.4,398.1"/>
		<path class="st4" d="M719.1,257c-0.4-1.6,0.1-3.9-2.1-4.1C717.4,254.5,716.8,256.9,719.1,257"/>
		<path class="st4" d="M622.4,422.4C615,417.4,627.6,429.3,622.4,422.4"/>
		<path class="st4" d="M669.6,215.9c-0.6,0.5,1,3,2.2,2.1C672.5,217.4,670.9,214.9,669.6,215.9"/>
		<path class="st4" d="M560.6,424.3c-0.6,0.5,1,3.1,2.2,2.1C563.4,425.8,561.8,423.3,560.6,424.3"/>
		<polygon class="st4" points="604.4,243.5 604.2,247.5 608.7,247.7 608.9,243.7 		"/>
		<path class="st4" d="M656.5,338.6c-0.7,0.5,1,3.1,2.2,2.1C659.3,340.1,657.7,337.6,656.5,338.6"/>
		<path class="st4" d="M746.8,343c0.4,1.6-0.1,3.9,2.1,4.1C748.4,345.5,749,343.1,746.8,343"/>
		<path class="st4" d="M758.1,353.9c-0.4,2.3-4.3,4.4-0.3,6C758.3,357.6,762.1,355.5,758.1,353.9"/>
		<path class="st4" d="M760.6,350c0.6,0.6,3.5-0.8,2.4-1.9C762.4,347.6,759.5,349,760.6,350"/>
		<polygon class="st4" points="640.2,252 644.8,252.1 645,248.1 640.4,248 		"/>
		<path class="st4" d="M744.6,299.7c-0.6-0.6-3.5,0.8-2.4,1.9C742.8,302.2,745.7,300.8,744.6,299.7"/>
		<path class="st4" d="M660.2,223.6c0.1-1.1-1.7-2.3-2.3-0.1C657.8,224.6,659.6,225.8,660.2,223.6"/>
		<path class="st4" d="M597.2,423.6c-1.8,0.4-4.5-0.1-4.6,1.8C594.3,425,597,425.5,597.2,423.6"/>
		<path class="st4" d="M609.2,410c-0.6-0.6-3.5,0.8-2.4,1.9C607.5,412.5,610.4,411.1,609.2,410"/>
		<path class="st4" d="M666.7,404c-0.6-0.6-3.5,0.8-2.4,1.9C664.9,406.5,667.8,405.1,666.7,404"/>
		<path class="st4" d="M747.1,394.8c-0.6-0.6-3.5,0.8-2.4,1.9C745.3,397.3,748.2,395.9,747.1,394.8"/>
		<path class="st4" d="M683.6,382.7c0.6,0.6,3.5-0.8,2.4-1.9C685.4,380.2,682.5,381.6,683.6,382.7"/>
		<path class="st4" d="M598.9,348.6c-0.1,2,3.9,2.6,4.6,0.2C600.9,348.8,600,345.7,598.9,348.6"/>
		<path class="st4" d="M583,346C590.4,352.3,590.3,338.9,583,346"/>
		<path class="st4" d="M553.3,232.2c-0.1-3.1,0.6-6.9-4.3-6.1C548.7,229.5,550.5,231.3,553.3,232.2"/>
		<path class="st4" d="M505.8,170.9c0.7-0.5-1-3.1-2.2-2.1C502.9,169.3,504.5,171.9,505.8,170.9"/>
		<path class="st4" d="M509.3,207.4l-4.6-0.2c-0.1,2-2,2.3-2.5,3.9C505.8,211.1,510.1,211.7,509.3,207.4"/>
		<path class="st4" d="M506.6,165.5c0.5,1.6-0.1,3.9,2.1,4.1C508.2,168,508.8,165.7,506.6,165.5"/>
		<path class="st4" d="M518.9,247.6c-0.1,2,3.9,2.6,4.6,0.2C520.9,247.8,520.1,244.7,518.9,247.6"/>
		<path class="st4" d="M503.1,245C510.5,251.4,510.3,237.9,503.1,245"/>
		<path class="st4" d="M490.3,224.7C497.7,231,497.5,217.6,490.3,224.7"/>
		<polygon class="st4" points="515.8,215.6 520.4,215.8 520.6,211.8 516,211.6 		"/>
		<path class="st4" d="M553.9,220.3c0.6,0.6,3.5-0.8,2.4-1.9C555.6,217.8,552.7,219.2,553.9,220.3"/>
		<path class="st4" d="M470.9,198.1l-4.6-0.2c-3.8,4.8,7.5,6.1,6.8,2.2C471.7,200,470.4,199.8,470.9,198.1"/>
		<path class="st4" d="M499.5,171.2c-0.6-0.6-3.5,0.8-2.4,1.9C497.7,173.7,500.6,172.3,499.5,171.2"/>
		<path class="st4" d="M518,165.9c0.6,0.6,3.5-0.8,2.4-1.9C519.8,163.4,516.9,164.8,518,165.9"/>
		<path class="st4" d="M455.6,131.9c3.3,5.6,13.4,0.4,13.9-3.5C464.7,129.4,453.7,124.6,455.6,131.9"/>
		<path class="st4" d="M485.6,124.9c0.1-2-3.9-2.6-4.6-0.2C483.6,124.7,484.5,127.8,485.6,124.9"/>
		<path class="st4" d="M547.5,117.4c-0.9-0.1-2.1,2.6-0.5,2.8C547.9,120.3,549.1,117.6,547.5,117.4"/>
		<polygon class="st4" points="551.6,132.3 554.3,135.5 558,133.1 555.3,129.9 		"/>
		<path class="st4" d="M636.8,315.6c0.9-0.2,0.9-3.1-0.7-2.7C635.2,313,635.2,315.9,636.8,315.6"/>
		<path class="st4" d="M595.7,219.9c-1.8-0.5-3.8-2.1-5.1-0.4C592.4,219.9,594.5,221.5,595.7,219.9"/>
		<path class="st4" d="M563,253.7C554.2,256.7,572.5,253.2,563,253.7"/>
		<path class="st4" d="M586.9,269.2c0.2,0.7,3.5,0.8,3.2-0.6C589.8,267.8,586.5,267.8,586.9,269.2"/>
		<path class="st4" d="M562.7,291.2C574.1,275.9,550,280.6,562.7,291.2"/>
		<path class="st4" d="M533.8,301.2c0.2,0.8,3.5,0.8,3.2-0.6C536.8,299.8,533.5,299.8,533.8,301.2"/>
		<polygon class="st4" points="581.5,332.3 585.4,334.4 587.8,331 584,328.9 		"/>
		<path class="st4" d="M594,348.6l-3.7,5C594.1,359.2,601.4,349.2,594,348.6"/>
		<polygon class="st4" points="644,255.9 646.4,252.5 642.6,250.4 640.1,253.7 		"/>
		<path class="st4" d="M634.1,243.4l3.7-5c-4-2.9-7.5-3.6-10.2-0.9C629.9,239.4,629.6,241.8,634.1,243.4"/>
		<polygon class="st4" points="557.8,368.6 555.3,372 559.2,374.1 561.7,370.7 		"/>
		<path class="st4" d="M589.7,280.2c-1.1-0.6-3.2,0.1-1.2,1.7C589.5,282.5,591.7,281.7,589.7,280.2"/>
		<path class="st4" d="M551.5,273.2c-0.5,1.5-2.4,3.3-0.5,4.4C551.5,276.1,553.3,274.3,551.5,273.2"/>
		<polygon class="st4" points="559.2,251.5 556.7,254.9 560.6,257 563,253.7 		"/>
		<path class="st4" d="M544.1,257.4c-0.9,0.2-0.9,3.1,0.7,2.7C545.7,259.9,545.7,257,544.1,257.4"/>
		<path class="st4" d="M567,211.1c-0.9,0.2-0.9,3.1,0.7,2.7C568.5,213.7,568.6,210.8,567,211.1"/>
		<path class="st4" d="M650.5,273.2c-1.8-0.4-3.8-2.1-5.1-0.4C647.2,273.2,649.3,274.8,650.5,273.2"/>
		<path class="st4" d="M556.3,296c0.2,0.8,3.5,0.8,3.2-0.6C559.2,294.6,555.9,294.6,556.3,296"/>
		<path class="st4" d="M626.4,321.2c-0.9,0.2-0.9,3.1,0.7,2.7C628,323.7,628,320.9,626.4,321.2"/>
		<path class="st4" d="M657.6,256c-0.9,0.2-0.9,3.1,0.7,2.7C659.2,258.5,659.3,255.7,657.6,256"/>
		<path class="st4" d="M625.5,249.9c0.9-0.2,0.9-3.1-0.7-2.7C624,247.3,623.9,250.2,625.5,249.9"/>
		<path class="st4" d="M537.3,344.4c2,1.1,4.6-1.6,2.4-3.4C538.5,343,535,342.1,537.3,344.4"/>
		<path class="st4" d="M526.8,355C536.8,352.6,523.3,346,526.8,355"/>
	</g>
</g>
</svg>
